<mxfile host="app.diagrams.net" modified="2024-04-17T07:44:10.102Z" agent="Mozilla/5.0 (Windows NT 10.0; Win64; x64) AppleWebKit/537.36 (KHTML, like Gecko) Chrome/123.0.0.0 Safari/537.36" version="24.2.5" etag="Y4C7V_pacD6NdE0CAxsH" type="github">
  <diagram name="Page-1" id="W1_9usUX-t7cK1rEpgE-">
    <mxGraphModel>
      <root>
        <mxCell id="0" />
        <mxCell id="1" parent="0" />
      </root>
    </mxGraphModel>
  </diagram>
</mxfile>
